<mxfile host="65bd71144e">
    <diagram id="HxSt1hBhforsEZw6VsC0" name="Page-1">
        <mxGraphModel dx="1447" dy="784" grid="1" gridSize="10" guides="1" tooltips="1" connect="1" arrows="1" fold="1" page="1" pageScale="1" pageWidth="1654" pageHeight="1169" math="0" shadow="0">
            <root>
                <mxCell id="0"/>
                <mxCell id="1" parent="0"/>
                <mxCell id="2" value="" style="rounded=0;whiteSpace=wrap;html=1;" vertex="1" parent="1">
                    <mxGeometry x="240" y="130" width="780" height="500" as="geometry"/>
                </mxCell>
                <mxCell id="3" value="enter user name" style="text;html=1;align=center;verticalAlign=middle;resizable=0;points=[];autosize=1;strokeColor=none;fillColor=none;" vertex="1" parent="1">
                    <mxGeometry x="290" y="170" width="110" height="30" as="geometry"/>
                </mxCell>
                <mxCell id="4" value="enter user name&lt;br&gt;" style="rounded=0;whiteSpace=wrap;html=1;" vertex="1" parent="1">
                    <mxGeometry x="290" y="220" width="120" height="60" as="geometry"/>
                </mxCell>
                <mxCell id="5" value="" style="rounded=0;whiteSpace=wrap;html=1;" vertex="1" parent="1">
                    <mxGeometry x="320" y="380" width="510" height="170" as="geometry"/>
                </mxCell>
                <mxCell id="6" value="search" style="rounded=0;whiteSpace=wrap;html=1;" vertex="1" parent="1">
                    <mxGeometry x="490" y="240" width="90" height="30" as="geometry"/>
                </mxCell>
                <mxCell id="8" value="easy" style="ellipse;whiteSpace=wrap;html=1;aspect=fixed;" vertex="1" parent="1">
                    <mxGeometry x="370" y="410" width="80" height="80" as="geometry"/>
                </mxCell>
                <mxCell id="9" value="medium" style="ellipse;whiteSpace=wrap;html=1;aspect=fixed;" vertex="1" parent="1">
                    <mxGeometry x="535" y="410" width="80" height="80" as="geometry"/>
                </mxCell>
                <mxCell id="10" value="hard" style="ellipse;whiteSpace=wrap;html=1;aspect=fixed;" vertex="1" parent="1">
                    <mxGeometry x="700" y="410" width="80" height="80" as="geometry"/>
                </mxCell>
            </root>
        </mxGraphModel>
    </diagram>
</mxfile>